<svg width="440" height="335" viewBox="0 0 440 335" fill="none" xmlns="http://www.w3.org/2000/svg">
<g clip-path="url(#clip0_246_2)">
<path d="M156.525 77.9494C156.342 77.9492 156.166 77.8798 156.033 77.7551C155.899 77.6304 155.818 77.4597 155.805 77.2774C155.333 70.8569 152.456 64.8516 147.748 60.4632C143.041 56.0748 136.852 53.6271 130.419 53.6097C129.649 53.6097 128.84 53.6489 128.015 53.7262C127.877 53.7392 127.738 53.7121 127.615 53.6482C127.492 53.5843 127.389 53.4863 127.321 53.3659C124.365 48.1897 119.952 43.999 114.632 41.3168C109.312 38.6346 103.32 37.5797 97.405 38.2838C91.4895 38.9878 85.9122 41.4196 81.3691 45.2757C76.826 49.1318 73.5184 54.2414 71.8589 59.9668C71.8151 60.1203 71.7216 60.2547 71.593 60.3491C71.4644 60.4435 71.3081 60.4925 71.1487 60.4882L70.9567 60.4824C70.8568 60.4791 70.757 60.4755 70.6564 60.4755C65.7768 60.4908 61.0491 62.1752 57.2578 65.2493C53.4664 68.3233 50.8394 72.6022 49.8125 77.3759C49.7783 77.5381 49.6894 77.6836 49.5608 77.7881C49.4321 77.8925 49.2715 77.9495 49.1058 77.9495H0.722205C0.530996 77.949 0.347795 77.8726 0.212769 77.7371C0.0777437 77.6016 0.00191498 77.4181 0.00191498 77.2268C0.00191498 77.0354 0.0777437 76.8519 0.212769 76.7164C0.347795 76.5809 0.530996 76.5046 0.722205 76.5041H48.5278C49.7313 71.5387 52.562 67.1199 56.5684 63.9527C60.5748 60.7855 65.5258 59.0524 70.6314 59.0301C72.449 53.1465 75.935 47.9178 80.6657 43.9791C85.3965 40.0405 91.1684 37.5614 97.2804 36.843C103.392 36.1247 109.581 37.1981 115.095 39.9327C120.609 42.6673 125.211 46.9456 128.341 52.2476C129.052 52.1922 129.748 52.1643 130.419 52.1643C137.217 52.1828 143.758 54.7696 148.732 59.4072C153.706 64.0448 156.747 70.3911 157.246 77.1761C157.253 77.2708 157.241 77.3659 157.211 77.4559C157.18 77.5459 157.133 77.6291 157.071 77.7008C157.009 77.7725 156.933 77.8311 156.848 77.8735C156.763 77.9159 156.671 77.9411 156.576 77.9477C156.559 77.9489 156.542 77.9494 156.525 77.9494Z" fill="#CBCBCB"/>
<path d="M147.932 87.2159H29.4908C29.2993 87.2159 29.1156 87.1398 28.9802 87.0043C28.8447 86.8687 28.7686 86.6849 28.7686 86.4932C28.7686 86.3015 28.8447 86.1177 28.9802 85.9822C29.1156 85.8466 29.2993 85.7705 29.4908 85.7705H147.932C148.124 85.7705 148.307 85.8466 148.443 85.9822C148.578 86.1177 148.654 86.3015 148.654 86.4932C148.654 86.6849 148.578 86.8687 148.443 87.0043C148.307 87.1398 148.124 87.2159 147.932 87.2159Z" fill="#CBCBCB"/>
<path d="M58.3789 97.6954H18.6578C18.5628 97.6957 18.4687 97.6772 18.3808 97.641C18.293 97.6048 18.2131 97.5516 18.1459 97.4844C18.0786 97.4173 18.0252 97.3375 17.9888 97.2497C17.9524 97.1619 17.9337 97.0678 17.9337 96.9727C17.9337 96.8777 17.9524 96.7835 17.9888 96.6957C18.0252 96.6079 18.0786 96.5281 18.1459 96.461C18.2131 96.3939 18.293 96.3407 18.3808 96.3045C18.4687 96.2683 18.5628 96.2498 18.6578 96.25H58.3789C58.5701 96.2505 58.7533 96.3269 58.8883 96.4624C59.0234 96.5978 59.0992 96.7814 59.0992 96.9727C59.0992 97.1641 59.0234 97.3476 58.8883 97.4831C58.7533 97.6186 58.5701 97.6949 58.3789 97.6954Z" fill="#CBCBCB"/>
<path d="M95.5163 238.316C95.5163 267.698 64.7344 281.757 64.7344 281.757C64.7344 281.757 33.6368 267.698 33.0054 238.316C32.6343 221.046 46.999 207.039 64.2608 207.039C68.3654 207.039 72.4297 207.848 76.2218 209.419C80.0139 210.991 83.4594 213.295 86.3618 216.2C89.2641 219.104 91.5664 222.552 93.1371 226.347C94.7078 230.142 95.5163 234.209 95.5163 238.316V238.316Z" fill="#E5E5E5"/>
<path d="M75.1531 283.495H54.316L51.7901 273.385H77.6785L75.1531 283.495Z" fill="#CBCBCB"/>
<path d="M74.4426 300.784H55.0263V310.91H74.4426V300.784Z" fill="white"/>
<path d="M74.6004 311.068H54.8684V300.626H74.6004V311.068ZM55.1841 310.752H74.2847V300.942H55.1841V310.752Z" fill="#CBCBCB"/>
<path d="M68.7145 284.687H60.7545L59.8411 283.25H69.628L68.7145 284.687Z" fill="#CBCBCB"/>
<path d="M54.7895 283.495H54.4738V298.975H54.7895V283.495Z" fill="#CBCBCB"/>
<path d="M74.9951 283.495H74.6793V298.975H74.9951V283.495Z" fill="#CBCBCB"/>
<path d="M67.899 273.214L67.7062 272.963C76.8269 265.925 87.6991 253.867 87.6991 236.393C87.7064 230.273 85.9078 224.288 82.529 219.186C79.1501 214.085 74.3415 210.096 68.706 207.719L68.829 207.428C74.5217 209.829 79.3791 213.859 82.7922 219.012C86.2054 224.165 88.0221 230.211 88.0148 236.393C88.0148 253.995 77.0757 266.132 67.899 273.214Z" fill="#CBCBCB"/>
<path d="M57.7961 273.213L57.6033 272.963C66.724 265.925 77.5963 253.867 77.5963 236.393C77.5988 230.314 75.8218 224.368 72.4848 219.289C69.1479 214.209 64.3972 210.219 58.8195 207.812L58.9447 207.521C64.579 209.954 69.3779 213.984 72.7487 219.115C76.1195 224.246 77.9145 230.253 77.912 236.393C77.912 253.995 66.9729 266.132 57.7961 273.213Z" fill="#CBCBCB"/>
<path d="M70.7255 273.213C61.5487 266.132 50.6097 253.995 50.6097 236.393C50.6072 230.253 52.4022 224.246 55.7731 219.115C59.1439 213.984 63.9429 209.954 69.5773 207.521L69.7024 207.812C64.1247 210.219 59.3739 214.209 56.0369 219.289C52.6999 224.368 50.9229 230.314 50.9254 236.393C50.9254 253.867 61.7976 265.925 70.9182 272.963L70.7255 273.213Z" fill="#CBCBCB"/>
<path d="M60.6227 273.214C51.446 266.132 40.5069 253.996 40.5069 236.394C40.4966 230.187 42.3262 224.117 45.7642 218.952C49.2022 213.786 54.094 209.757 59.8208 207.375L59.9426 207.666C54.2733 210.025 49.4305 214.013 46.0271 219.127C42.6236 224.24 40.8124 230.249 40.8226 236.394C40.8226 253.867 51.6948 265.925 60.8155 272.963L60.6227 273.214Z" fill="#CBCBCB"/>
<path d="M64.4187 207.039H64.103V273.385H64.4187V207.039Z" fill="#CBCBCB"/>
<path d="M60.7039 298.489L54.9147 304.282L55.1379 304.506L60.9271 298.712L60.7039 298.489Z" fill="#CBCBCB"/>
<path d="M63.5183 298.392L54.9125 307.45L55.1412 307.667L63.747 298.61L63.5183 298.392Z" fill="#CBCBCB"/>
<path d="M76.2579 298.501H52.5795V301.345H76.2579V298.501Z" fill="white"/>
<path d="M76.4158 301.503H52.4217V298.344H76.4158V301.503ZM52.7374 301.187H76.1V298.66H52.7374V301.187Z" fill="#CBCBCB"/>
<path d="M155.088 163.853C155.088 183.246 134.771 192.526 134.771 192.526C134.771 192.526 114.245 183.246 113.828 163.853C113.583 152.454 123.064 143.208 134.458 143.208C139.929 143.208 145.177 145.384 149.046 149.255C152.915 153.127 155.088 158.378 155.088 163.853V163.853Z" fill="#E5E5E5"/>
<path d="M141.647 193.673H127.894L126.227 187H143.315L141.647 193.673Z" fill="#CBCBCB"/>
<path d="M141.178 205.085H128.363V211.768H141.178V205.085Z" fill="white"/>
<path d="M141.283 211.873H128.259V204.981H141.283V211.873ZM128.467 211.664H141.074V205.189H128.467V211.664Z" fill="#CBCBCB"/>
<path d="M137.398 194.46H132.143L131.541 193.512H138L137.398 194.46Z" fill="#CBCBCB"/>
<path d="M128.207 193.673H127.998V203.891H128.207V193.673Z" fill="#CBCBCB"/>
<path d="M141.543 193.673H141.335V203.891H141.543V193.673Z" fill="#CBCBCB"/>
<path d="M136.859 186.887L136.732 186.722C142.752 182.076 149.928 174.117 149.928 162.584C149.933 158.545 148.746 154.594 146.516 151.227C144.286 147.86 141.112 145.227 137.392 143.658L137.473 143.466C141.231 145.051 144.437 147.71 146.69 151.112C148.942 154.513 150.142 158.504 150.137 162.584C150.137 174.202 142.916 182.213 136.859 186.887Z" fill="#CBCBCB"/>
<path d="M130.191 186.887L130.064 186.722C136.084 182.076 143.26 174.117 143.26 162.584C143.262 158.572 142.089 154.647 139.886 151.294C137.684 147.942 134.548 145.308 130.867 143.719L130.949 143.527C134.668 145.133 137.836 147.793 140.06 151.18C142.285 154.566 143.47 158.531 143.468 162.584C143.468 174.202 136.248 182.213 130.191 186.887Z" fill="#CBCBCB"/>
<path d="M138.725 186.887C132.668 182.213 125.448 174.202 125.448 162.584C125.446 158.531 126.631 154.566 128.856 151.18C131.081 147.793 134.248 145.133 137.967 143.527L138.05 143.719C134.368 145.308 131.232 147.941 129.03 151.294C126.827 154.647 125.654 158.572 125.656 162.584C125.656 174.117 132.832 182.076 138.852 186.722L138.725 186.887Z" fill="#CBCBCB"/>
<path d="M132.057 186.887C126 182.213 118.779 174.202 118.779 162.584C118.773 158.487 119.98 154.481 122.249 151.072C124.519 147.662 127.748 145.003 131.527 143.43L131.608 143.623C127.866 145.179 124.669 147.812 122.423 151.187C120.177 154.562 118.981 158.529 118.988 162.584C118.988 174.117 126.164 182.076 132.184 186.722L132.057 186.887Z" fill="#CBCBCB"/>
<path d="M134.562 143.208H134.354V187H134.562V143.208Z" fill="#CBCBCB"/>
<path d="M132.11 203.57L128.289 207.394L128.437 207.541L132.258 203.717L132.11 203.57Z" fill="#CBCBCB"/>
<path d="M133.968 203.506L128.288 209.484L128.439 209.628L134.119 203.65L133.968 203.506Z" fill="#CBCBCB"/>
<path d="M142.377 203.578H126.748V205.455H142.377V203.578Z" fill="white"/>
<path d="M142.481 205.559H126.644V203.474H142.481V205.559ZM126.852 205.351H142.272V203.683H126.852V205.351Z" fill="#CBCBCB"/>
<path d="M327.805 190.367C327.936 190.367 328.062 190.317 328.158 190.228C328.253 190.139 328.312 190.016 328.321 189.886C328.659 185.283 330.722 180.979 334.096 177.833C337.47 174.688 341.906 172.933 346.518 172.921C347.069 172.921 347.649 172.949 348.241 173.004C348.34 173.014 348.439 172.994 348.527 172.948C348.616 172.903 348.689 172.832 348.738 172.746C350.856 169.036 354.02 166.032 357.833 164.109C361.646 162.187 365.941 161.431 370.181 161.935C374.421 162.44 378.419 164.183 381.676 166.947C384.932 169.711 387.303 173.374 388.492 177.478C388.524 177.587 388.591 177.684 388.683 177.752C388.775 177.819 388.887 177.854 389.001 177.851L389.139 177.847C389.211 177.845 389.282 177.842 389.354 177.842C392.852 177.853 396.241 179.06 398.958 181.264C401.676 183.467 403.559 186.534 404.295 189.956C404.32 190.072 404.383 190.177 404.475 190.252C404.568 190.326 404.683 190.367 404.802 190.367H439.482C439.55 190.367 439.618 190.354 439.681 190.328C439.744 190.302 439.801 190.264 439.849 190.216C439.898 190.168 439.936 190.111 439.962 190.048C439.988 189.985 440.002 189.917 440.002 189.849C440.002 189.781 439.988 189.714 439.962 189.651C439.936 189.588 439.898 189.53 439.849 189.482C439.801 189.434 439.744 189.396 439.681 189.37C439.618 189.344 439.55 189.331 439.482 189.331H405.216C404.353 185.772 402.324 182.605 399.452 180.335C396.581 178.064 393.032 176.822 389.372 176.806C388.069 172.589 385.571 168.841 382.18 166.018C378.789 163.195 374.652 161.418 370.271 160.903C365.89 160.388 361.454 161.157 357.501 163.117C353.549 165.077 350.25 168.144 348.007 171.944C347.497 171.905 346.998 171.885 346.518 171.885C341.644 171.898 336.956 173.752 333.391 177.076C329.825 180.401 327.646 184.95 327.288 189.813C327.283 189.881 327.292 189.949 327.313 190.013C327.335 190.078 327.369 190.138 327.414 190.189C327.458 190.24 327.512 190.282 327.573 190.313C327.634 190.343 327.7 190.361 327.768 190.366C327.781 190.367 327.793 190.367 327.805 190.367Z" fill="#CBCBCB"/>
<path d="M333.964 197.01H418.861C418.999 197.01 419.13 196.955 419.227 196.858C419.324 196.761 419.379 196.629 419.379 196.492C419.379 196.354 419.324 196.223 419.227 196.125C419.13 196.028 418.999 195.974 418.861 195.974H333.964C333.827 195.974 333.695 196.028 333.598 196.125C333.501 196.223 333.447 196.354 333.447 196.492C333.447 196.629 333.501 196.761 333.598 196.858C333.695 196.955 333.827 197.01 333.964 197.01V197.01Z" fill="#CBCBCB"/>
<path d="M398.155 204.521H426.626C426.763 204.521 426.895 204.466 426.991 204.369C427.088 204.272 427.142 204.14 427.142 204.003C427.142 203.866 427.088 203.734 426.991 203.637C426.895 203.54 426.763 203.485 426.626 203.485H398.155C398.087 203.485 398.019 203.498 397.957 203.524C397.894 203.55 397.837 203.588 397.789 203.637C397.741 203.685 397.702 203.742 397.676 203.805C397.65 203.868 397.637 203.935 397.637 204.003C397.637 204.071 397.65 204.138 397.676 204.201C397.702 204.264 397.741 204.321 397.789 204.369C397.837 204.417 397.894 204.455 397.957 204.481C398.019 204.508 398.087 204.521 398.155 204.521V204.521Z" fill="#CBCBCB"/>
<path d="M265.855 329.515H264.15L263.339 322.938H265.855V329.515Z" fill="#9F616A"/>
<path d="M266.289 331.169H260.795V331.099C260.795 330.532 261.021 329.988 261.422 329.587C261.823 329.185 262.366 328.96 262.933 328.959H266.289V331.169Z" fill="#2F2E41"/>
<path d="M287.828 326.284L286.367 327.163L282.287 321.943L284.443 320.646L287.828 326.284Z" fill="#9F616A"/>
<path d="M284.342 330.309L284.306 330.25C284.014 329.763 283.928 329.18 284.065 328.63C284.202 328.079 284.552 327.606 285.038 327.313L287.914 325.583L289.051 327.478L284.342 330.309Z" fill="#2F2E41"/>
<path d="M266.297 328.159L266.268 328.158C265.439 328.156 264.611 328.108 263.787 328.016C263.473 327.985 263.133 327.951 262.722 327.917L262.708 327.914C262.428 327.831 262.42 325.204 262.539 316.209C262.6 311.602 262.669 306.381 262.587 303.055L262.586 303.023L262.611 303.001C264.093 301.701 265.861 300.77 267.772 300.285C269.682 299.799 271.68 299.773 273.602 300.209L273.632 300.215L273.648 300.241C275.323 303.077 277.851 307.161 280.297 311.112C285.91 320.179 287.516 322.846 287.34 323.047L287.318 323.064C286.935 323.255 286.647 323.403 286.403 323.529C285.434 324.031 284.439 324.48 283.422 324.874L283.377 324.892L283.344 324.856C277.649 318.611 272.909 311.634 269.977 305.184C269.634 307.386 269.218 310.261 268.779 313.299C267.516 322.035 266.662 327.787 266.318 328.138L266.297 328.159Z" fill="#2F2E41"/>
<path d="M375.197 100.721C375.197 195.338 276.071 240.612 276.071 240.612C276.071 240.612 175.93 195.338 173.896 100.721C172.701 45.1074 218.959 0 274.546 0C330.134 0 375.197 45.0945 375.197 100.721Z" fill="#E5E5E5"/>
<path d="M278.198 328.772H276.108L275.114 320.708H278.198V328.772Z" fill="#FFB7B7"/>
<path d="M274.616 328.175H278.645V330.714H272.079C272.079 330.38 272.144 330.05 272.272 329.742C272.399 329.434 272.586 329.154 272.822 328.918C273.057 328.683 273.337 328.496 273.645 328.368C273.953 328.24 274.283 328.175 274.616 328.175Z" fill="#2F2E41"/>
<path d="M286.037 328.772H283.948L282.954 320.708H286.038L286.037 328.772Z" fill="#FFB7B7"/>
<path d="M282.456 328.175H286.485V330.714H279.918C279.918 330.04 280.186 329.395 280.662 328.918C281.137 328.442 281.783 328.175 282.456 328.175Z" fill="#2F2E41"/>
<path d="M278.099 324.709L275.799 324.6C275.603 324.59 275.418 324.506 275.282 324.365C275.146 324.223 275.07 324.035 275.068 323.839L274.908 300.549C274.907 300.439 274.93 300.329 274.976 300.229C275.021 300.128 275.088 300.038 275.171 299.965C275.254 299.893 275.352 299.839 275.458 299.808C275.564 299.776 275.676 299.768 275.785 299.784L284.987 301.121C285.169 301.147 285.335 301.237 285.456 301.375C285.577 301.514 285.643 301.691 285.644 301.875L286.827 323.455C286.828 323.556 286.809 323.657 286.77 323.75C286.732 323.844 286.676 323.929 286.605 324.001C286.533 324.073 286.449 324.13 286.355 324.169C286.262 324.208 286.161 324.228 286.06 324.228H283.581C283.398 324.229 283.22 324.164 283.081 324.045C282.942 323.926 282.851 323.761 282.823 323.58C282.823 323.58 280.95 307.393 280.693 307.402C280.434 307.407 278.897 324.034 278.897 324.034C278.874 324.22 278.784 324.392 278.644 324.516C278.504 324.641 278.323 324.71 278.135 324.71C278.123 324.71 278.111 324.71 278.099 324.709Z" fill="#2F2E41"/>
<path d="M309.622 246.208H242.522L234.388 213.651H317.755L309.622 246.208Z" fill="#CBCBCB"/>
<path d="M307.334 301.885H244.809V334.491H307.334V301.885Z" fill="white"/>
<path d="M307.842 335H244.301V301.376H307.842V335ZM245.317 333.983H306.826V302.393H245.317V333.983Z" fill="#CBCBCB"/>
<path d="M288.888 250.047H263.255L260.313 245.421H291.83L288.888 250.047Z" fill="#CBCBCB"/>
<path d="M244.046 246.208H243.03V296.06H244.046V246.208Z" fill="#CBCBCB"/>
<path d="M309.113 246.208H308.097V296.06H309.113V246.208Z" fill="#CBCBCB"/>
<path d="M286.262 213.1L285.641 212.294C315.012 189.629 350.023 150.799 350.023 94.5299C350.047 74.8223 344.255 55.5464 333.374 39.1197C322.494 22.693 307.009 9.84685 288.861 2.19228L289.257 1.25537C307.589 8.98761 323.231 21.9641 334.222 38.5575C345.213 55.1508 351.064 74.6223 351.04 94.5299C351.04 151.213 315.813 190.295 286.262 213.1Z" fill="#CBCBCB"/>
<path d="M253.728 213.1L253.108 212.294C282.479 189.629 317.49 150.799 317.49 94.5299C317.498 74.9548 311.776 55.8061 301.03 39.4491C290.284 23.0921 274.986 10.2434 257.024 2.49008L257.427 1.55615C275.571 9.38817 291.025 22.3673 301.879 38.8902C312.734 55.4131 318.515 74.7561 318.507 94.5299C318.507 151.213 283.28 190.295 253.728 213.1Z" fill="#CBCBCB"/>
<path d="M295.364 213.1C265.813 190.295 230.586 151.213 230.586 94.5301C230.578 74.7562 236.359 55.4131 247.214 38.8901C258.069 22.3671 273.523 9.388 291.667 1.55615L292.07 2.49008C274.108 10.2433 258.809 23.092 248.063 39.449C237.318 55.806 231.595 74.9549 231.603 94.5301C231.603 150.799 266.614 189.629 295.985 212.295L295.364 213.1Z" fill="#CBCBCB"/>
<path d="M262.831 213.1C233.279 190.295 198.053 151.213 198.053 94.5297C198.02 74.5436 203.912 54.9968 214.983 38.3625C226.054 21.7282 241.807 8.75402 260.249 1.08154L260.641 2.02044C242.384 9.61579 226.789 22.4596 215.829 38.9268C204.869 55.394 199.037 74.7444 199.07 94.5297C199.07 150.799 234.081 189.629 263.452 212.294L262.831 213.1Z" fill="#CBCBCB"/>
<path d="M275.055 0H274.038V213.651H275.055V0Z" fill="#CBCBCB"/>
<path d="M263.092 294.492L244.45 313.148L245.168 313.867L263.811 295.211L263.092 294.492Z" fill="#CBCBCB"/>
<path d="M272.155 294.182L244.442 323.349L245.179 324.05L272.892 294.883L272.155 294.182Z" fill="#CBCBCB"/>
<path d="M313.18 294.534H236.93V303.69H313.18V294.534Z" fill="white"/>
<path d="M313.688 304.199H236.421V294.025H313.688V304.199ZM237.438 303.181H312.672V295.042H237.438V303.181Z" fill="#CBCBCB"/>
<path d="M223.321 248.358C223.19 248.358 223.064 248.309 222.969 248.219C222.873 248.13 222.815 248.007 222.805 247.877C222.467 243.275 220.404 238.97 217.031 235.825C213.657 232.679 209.22 230.924 204.609 230.912C204.057 230.912 203.477 230.94 202.886 230.996C202.787 231.005 202.687 230.985 202.599 230.94C202.511 230.894 202.437 230.824 202.388 230.737C200.27 227.027 197.107 224.023 193.293 222.101C189.48 220.178 185.185 219.422 180.945 219.927C176.705 220.431 172.707 222.174 169.451 224.938C166.194 227.702 163.823 231.365 162.634 235.469C162.602 235.579 162.535 235.675 162.443 235.743C162.351 235.81 162.239 235.846 162.125 235.842L161.987 235.838C161.916 235.836 161.844 235.833 161.772 235.833C158.274 235.844 154.886 237.052 152.168 239.255C149.45 241.459 147.567 244.526 146.831 247.947C146.807 248.064 146.743 248.168 146.651 248.243C146.559 248.318 146.443 248.358 146.325 248.358H111.644C111.576 248.359 111.508 248.345 111.445 248.319C111.382 248.294 111.325 248.255 111.277 248.207C111.229 248.159 111.19 248.102 111.164 248.039C111.138 247.976 111.125 247.909 111.125 247.84C111.125 247.772 111.138 247.705 111.164 247.642C111.19 247.579 111.229 247.522 111.277 247.474C111.325 247.425 111.382 247.387 111.445 247.361C111.508 247.335 111.576 247.322 111.644 247.322H145.91C146.773 243.763 148.802 240.596 151.674 238.326C154.546 236.056 158.094 234.813 161.754 234.797C163.057 230.58 165.556 226.832 168.946 224.009C172.337 221.186 176.475 219.409 180.856 218.894C185.237 218.379 189.673 219.148 193.625 221.109C197.577 223.069 200.876 226.135 203.12 229.936C203.629 229.896 204.128 229.876 204.609 229.876C209.482 229.889 214.17 231.743 217.736 235.068C221.301 238.392 223.481 242.941 223.838 247.804C223.843 247.872 223.834 247.94 223.813 248.005C223.791 248.069 223.757 248.129 223.713 248.18C223.668 248.232 223.614 248.274 223.553 248.304C223.492 248.334 223.426 248.352 223.358 248.357C223.346 248.358 223.333 248.358 223.321 248.358Z" fill="#CBCBCB"/>
<path d="M217.162 255H132.265C132.197 255.001 132.129 254.987 132.066 254.961C132.003 254.936 131.946 254.897 131.898 254.849C131.85 254.801 131.811 254.744 131.785 254.681C131.759 254.618 131.746 254.551 131.746 254.482C131.746 254.414 131.759 254.347 131.785 254.284C131.811 254.221 131.85 254.164 131.898 254.116C131.946 254.067 132.003 254.029 132.066 254.003C132.129 253.977 132.197 253.964 132.265 253.964H217.162C217.299 253.964 217.431 254.019 217.528 254.116C217.625 254.213 217.68 254.345 217.68 254.482C217.68 254.62 217.625 254.752 217.528 254.849C217.431 254.946 217.299 255 217.162 255Z" fill="#CBCBCB"/>
<path d="M152.972 262.512H124.5C124.432 262.512 124.364 262.499 124.301 262.473C124.238 262.447 124.181 262.409 124.133 262.361C124.085 262.313 124.046 262.256 124.02 262.193C123.994 262.13 123.981 262.062 123.981 261.994C123.981 261.926 123.994 261.858 124.02 261.796C124.046 261.733 124.085 261.675 124.133 261.627C124.181 261.579 124.238 261.541 124.301 261.515C124.364 261.489 124.432 261.476 124.5 261.476H152.972C153.04 261.476 153.107 261.489 153.17 261.515C153.233 261.541 153.29 261.579 153.339 261.627C153.387 261.675 153.425 261.733 153.451 261.796C153.477 261.858 153.491 261.926 153.491 261.994C153.491 262.062 153.477 262.13 153.451 262.193C153.425 262.256 153.387 262.313 153.339 262.361C153.29 262.409 153.233 262.447 153.17 262.473C153.107 262.499 153.04 262.512 152.972 262.512V262.512Z" fill="#CBCBCB"/>
</g>
<defs>
<clipPath id="clip0_246_2">
<rect width="440" height="335" fill="white"/>
</clipPath>
</defs>
</svg>
