<svg width="26" height="26" viewBox="0 0 26 26" fill="none" xmlns="http://www.w3.org/2000/svg">
<path d="M10.5864 14.1949C11.1047 14.8877 11.7659 15.4611 12.5252 15.8759C13.2846 16.2908 14.1242 16.5375 14.9873 16.5993C15.8503 16.6611 16.7166 16.5366 17.5273 16.2341C18.338 15.9317 19.0742 15.4585 19.6859 14.8466L23.3063 11.2261C24.4055 10.088 25.0137 8.56381 25 6.98168C24.9862 5.39956 24.3516 3.88613 23.2328 2.76735C22.1141 1.64858 20.6006 1.01398 19.0185 1.00023C17.4364 0.98648 15.9122 1.59468 14.7741 2.69385L12.6984 4.75752" stroke="black" stroke-width="2" stroke-linecap="round" stroke-linejoin="round"/>
<path d="M15.4138 11.7811C14.8955 11.0883 14.2343 10.515 13.4749 10.1001C12.7156 9.68525 11.876 9.43855 11.0129 9.37674C10.1499 9.31493 9.2836 9.43946 8.47291 9.74187C7.66221 10.0443 6.92604 10.5175 6.31432 11.1295L2.69385 14.7499C1.59468 15.888 0.98648 17.4122 1.00023 18.9943C1.01398 20.5765 1.64858 22.0899 2.76735 23.2087C3.88613 24.3274 5.39956 24.962 6.98168 24.9758C8.56381 24.9895 10.088 24.3813 11.2261 23.2822L13.2898 21.2185" stroke="black" stroke-width="2" stroke-linecap="round" stroke-linejoin="round"/>
</svg>
