<?xml version="1.0" standalone="no"?>
<!DOCTYPE svg PUBLIC "-//W3C//DTD SVG 20010904//EN"
 "http://www.w3.org/TR/2001/REC-SVG-20010904/DTD/svg10.dtd">
<svg version="1.0" xmlns="http://www.w3.org/2000/svg"
 width="256.000000pt" height="256.000000pt" viewBox="0 0 256.000000 256.000000"
 preserveAspectRatio="xMidYMid meet">
<metadata>
Created by potrace 1.14, written by Peter Selinger 2001-2017
</metadata>
<g transform="translate(0.000000,256.000000) scale(0.100000,-0.100000)"
fill="#000000" stroke="none">
<path d="M926 2356 c-54 -20 -84 -44 -129 -102 -50 -65 -71 -138 -65 -225 9
-114 33 -151 245 -362 103 -103 197 -193 208 -201 31 -21 98 -29 145 -16 25 7
64 31 100 63 58 52 76 79 71 106 -4 23 60 81 83 75 17 -4 40 14 108 84 112
114 132 156 132 277 1 104 -20 160 -86 231 -56 61 -125 88 -209 82 -78 -6
-119 -27 -196 -101 l-52 -51 -58 56 c-32 30 -74 63 -93 73 -46 24 -154 30
-204 11z"/>
<path d="M125 1606 c-43 -19 -89 -67 -101 -107 -11 -36 -11 -72 0 -154 15
-117 28 -211 31 -230 2 -11 4 -25 4 -32 1 -6 10 -14 20 -18 27 -8 39 -90 16
-115 -12 -13 -14 -29 -10 -64 7 -50 -9 -139 -29 -159 -44 -45 -58 -79 -52
-121 6 -40 21 -57 195 -229 182 -181 189 -187 229 -187 31 0 51 8 89 37 57 44
103 62 160 63 23 0 68 10 100 21 52 20 81 44 279 241 l222 220 137 -134 c96
-93 145 -133 161 -133 31 -1 93 -61 87 -84 -12 -46 101 -117 203 -127 84 -8
114 -19 175 -65 49 -37 58 -40 98 -36 43 5 53 13 231 193 160 162 187 194 188
222 2 33 -23 102 -38 102 -4 0 -18 21 -30 47 -21 46 -23 93 -6 193 2 14 7 51
11 84 4 32 8 68 10 80 2 11 9 59 15 106 19 153 20 165 25 199 11 70 -34 152
-99 182 -52 24 -100 24 -152 0 -55 -25 -88 -72 -109 -156 -20 -78 -39 -115
-59 -115 -7 0 -52 38 -101 85 -105 102 -145 117 -227 86 -33 -12 -74 -65 -85
-111 -5 -19 -15 -36 -21 -36 -7 -1 -22 -2 -33 -3 -36 -2 -95 -70 -104 -119
l-7 -44 -19 31 c-21 34 -85 71 -124 71 -40 0 -89 -25 -125 -62 -28 -29 -37
-33 -73 -30 -23 2 -52 13 -64 24 -11 11 -39 22 -62 25 -22 3 -39 8 -39 12 1 3
-1 22 -5 42 -9 47 -61 96 -112 107 -22 4 -40 12 -41 17 -4 78 -71 145 -144
145 -56 0 -95 -26 -204 -135 -125 -126 -122 -126 -160 5 -30 100 -48 128 -106
158 -50 25 -100 28 -145 8z"/>
</g>
</svg>
